<svg xmlns="http://www.w3.org/2000/svg" xmlns:xlink="http://www.w3.org/1999/xlink" width="62.855" height="56.983" viewBox="0 0 62.855 56.983">
  <defs>
    <linearGradient id="linear-gradient" x1="0.173" y1="0.7" x2="1.039" y2="0.117" gradientUnits="objectBoundingBox">
      <stop offset="0" stop-color="#35312d"/>
      <stop offset="1" stop-color="#4d4641"/>
    </linearGradient>
  </defs>
  <g id="_1" data-name="1" transform="translate(-135.099 -154.726) rotate(16)">
    <g id="Group_6210" data-name="Group 6210" transform="translate(235.756 134.187)">
      <g id="Group_6207" data-name="Group 6207" transform="translate(4.044 2.148)" style="mix-blend-mode: normal;isolation: isolate">
        <path id="Path_2114" data-name="Path 2114" d="M370.885,202.378a.126.126,0,0,0-.126.013l-.513.3a.383.383,0,0,0-.175.3l0,1.888a.122.122,0,0,0,.051.112l.153.089.761-2.61Z" transform="translate(-370.071 -202.366)" fill="#4c5467"/>
        <path id="Path_2115" data-name="Path 2115" d="M371.446,202.786c0-.111-.08-.153-.176-.1l-.513.3a.382.382,0,0,0-.175.3l0,1.888c0,.111.08.156.176.1l.513-.3a.387.387,0,0,0,.175-.3Z" transform="translate(-370.429 -202.575)" fill="#8c98b2"/>
      </g>
      <g id="Group_6208" data-name="Group 6208" transform="translate(0 0)">
        <path id="Path_2116" data-name="Path 2116" d="M361.012,197.654a.057.057,0,0,1-.057-.057v-1.185l-1.583-.914a1.821,1.821,0,0,0-1.646,0l-1.083.625a.058.058,0,0,1-.058-.1l1.083-.625a1.95,1.95,0,0,1,1.762,0l1.612.931a.057.057,0,0,1,.028.05V197.6A.057.057,0,0,1,361.012,197.654Z" transform="translate(-356.554 -195.187)" fill="#47433f"/>
      </g>
      <g id="Group_6209" data-name="Group 6209" transform="translate(4.4 1.133)">
        <path id="Path_2117" data-name="Path 2117" d="M371.511,200.188a.058.058,0,0,1-.058-.058v-.881l-.177-.177a.058.058,0,1,1,.081-.082l.194.194a.058.058,0,0,1,.017.041v.9A.058.058,0,0,1,371.511,200.188Z" transform="translate(-371.259 -198.975)" fill="#47433f"/>
      </g>
    </g>
    <path id="Path_2118" data-name="Path 2118" d="M284.868,216.594l-2.521.768.216,2.161.723,1.52,4.729-2.731Z" transform="translate(-68.792 -76.001)" fill="#26231f"/>
    <path id="Path_2119" data-name="Path 2119" d="M209.361,173l-2.521.768.216,2.161.723,1.52,4.729-2.731Z" transform="translate(-15.877 -45.45)" fill="#26231f"/>
    <g id="Group_6212" data-name="Group 6212" transform="translate(214.109 142.31)">
      <g id="Axonometric_Cylinder" data-name="Axonometric Cylinder" transform="translate(0)">
        <path id="Path_2120" data-name="Path 2120" d="M291.875,222.618a1.455,1.455,0,0,0-1.487-.138l-1.3.753,2.974,5.089,1.3-.753a1.473,1.473,0,0,0,.6-1.341A4.606,4.606,0,0,0,291.875,222.618Z" transform="translate(-287.623 -222.334)" fill="#26231f"/>
        <ellipse id="Cylinder_face" data-name="Cylinder face" cx="1.702" cy="2.947" rx="1.702" ry="2.947" transform="translate(0 1.743) rotate(-30)" fill="#3f3932"/>
      </g>
      <g id="Group_6211" data-name="Group 6211" transform="translate(1.415 1.539)" style="mix-blend-mode: normal;isolation: isolate">
        <path id="Path_2121" data-name="Path 2121" d="M290.461,231.18a3.312,3.312,0,0,1-1.53-2.589c-.015-.97.647-1.384,1.477-.925a3.313,3.313,0,0,1,1.53,2.589C291.953,231.226,291.292,231.64,290.461,231.18Z" transform="translate(-288.931 -227.479)" fill="#a8a8a8"/>
        <path id="Path_2122" data-name="Path 2122" d="M291.168,232.442a2.164,2.164,0,0,1-1-1.691c-.01-.633.422-.9.965-.6a2.163,2.163,0,0,1,1,1.69C292.142,232.471,291.71,232.741,291.168,232.442Z" transform="translate(-289.798 -229.263)" fill="#a8a8a8"/>
        <path id="Path_2123" data-name="Path 2123" d="M292.239,230.91c0-.032,0-.065,0-.1a2.819,2.819,0,0,0-1.3-2.2c-.706-.391-1.269-.039-1.257.787a2.817,2.817,0,0,0,1.3,2.2C291.661,231.973,292.207,231.664,292.239,230.91Zm-1.412.428a2.164,2.164,0,0,1-1-1.691c-.01-.633.422-.9.965-.6a2.164,2.164,0,0,1,1,1.69c0,.026,0,.051,0,.076C291.766,231.389,291.347,231.626,290.827,231.338Z" transform="translate(-289.458 -228.16)" fill="#bebebe"/>
        <path id="Path_2124" data-name="Path 2124" d="M296.2,232.361l-.368.2a2.007,2.007,0,0,1,.268.915c0,.026,0,.051,0,.076l.448.1c0-.032,0-.065,0-.1a2.615,2.615,0,0,0-.349-1.191Z" transform="translate(-293.771 -230.9)" fill="#e4e4e4"/>
      </g>
    </g>
    <g id="Group_6214" data-name="Group 6214" transform="translate(191.445 129.225)">
      <g id="Axonometric_Cylinder-2" data-name="Axonometric Cylinder" transform="translate(0 0)">
        <path id="Path_2125" data-name="Path 2125" d="M216.126,178.884a1.455,1.455,0,0,0-1.487-.138l-1.3.753,2.974,5.089,1.3-.753a1.473,1.473,0,0,0,.6-1.341A4.607,4.607,0,0,0,216.126,178.884Z" transform="translate(-211.874 -178.6)" fill="#26231f"/>
        <ellipse id="Cylinder_face-2" data-name="Cylinder face" cx="1.702" cy="2.947" rx="1.702" ry="2.947" transform="matrix(0.866, -0.5, 0.5, 0.866, 0, 1.743)" fill="#3f3932"/>
      </g>
      <g id="Group_6213" data-name="Group 6213" transform="translate(0.792 1.026)" style="mix-blend-mode: normal;isolation: isolate">
        <ellipse id="Ellipse_9214" data-name="Ellipse 9214" cx="1.232" cy="2.127" rx="1.232" ry="2.127" transform="translate(0 1.226) rotate(-29.837)" fill="#a8a8a8"/>
        <path id="Path_2126" data-name="Path 2126" d="M215.418,188.708a2.163,2.163,0,0,1-1-1.69c-.01-.634.422-.9.965-.6a2.164,2.164,0,0,1,1,1.69C216.393,188.737,215.961,189.008,215.418,188.708Z" transform="translate(-213.426 -185.016)" fill="#a8a8a8"/>
        <path id="Path_2127" data-name="Path 2127" d="M216.489,187.176c0-.032,0-.065,0-.1a2.819,2.819,0,0,0-1.3-2.2c-.706-.391-1.269-.039-1.257.787a2.819,2.819,0,0,0,1.3,2.2C215.911,188.239,216.457,187.93,216.489,187.176Zm-1.412.428a2.163,2.163,0,0,1-1-1.69c-.01-.634.422-.9.965-.6a2.164,2.164,0,0,1,1,1.69c0,.026,0,.051,0,.076C216.016,187.655,215.6,187.892,215.077,187.6Z" transform="translate(-213.085 -183.912)" fill="#bebebe"/>
        <path id="Path_2128" data-name="Path 2128" d="M220.455,188.627l-.367.2a2.007,2.007,0,0,1,.268.915c0,.026,0,.051,0,.076l.448.1c0-.032,0-.065,0-.1a2.608,2.608,0,0,0-.349-1.191Z" transform="translate(-217.399 -186.653)" fill="#e4e4e4"/>
      </g>
    </g>
    <g id="Group_6215" data-name="Group 6215" transform="translate(184.184 108.145)" style="mix-blend-mode: normal;isolation: isolate">
      <path id="Path_2129" data-name="Path 2129" d="M334.7,202.172a.194.194,0,0,0-.1-.168l-.074-.043-.016-7.79.085-.049a.185.185,0,0,0,.092-.16l0-2.125-10.426,6.056,0,2.142a.319.319,0,0,1-.164-.042l-.909-.524a.018.018,0,0,0-.028.016l0,7.8a.256.256,0,0,0,.128.222l.772.445a.414.414,0,0,0,.214.055l0,2.837L334.7,204.79Zm-1.208-4.346a.188.188,0,0,1-.282.163l-2.659-1.535,2.94-1.7Z" transform="translate(-281.578 -166.797)" fill="#5f6c86"/>
      <path id="Path_2130" data-name="Path 2130" d="M334.527,207.428l-.016-7.79s-1.021.586-1.021.586v3.07a.188.188,0,0,1-.282.163l-2.659-1.535-6.129,3.538a.317.317,0,0,1-.168.041.321.321,0,0,1-.154-.041l-.909-.525a.018.018,0,0,0-.028.016l0,7.8a.256.256,0,0,0,.128.222l.772.446a.4.4,0,0,0,.1.042.433.433,0,0,0,.11.013.415.415,0,0,0,.2-.055l10.011-5.78a.08.08,0,0,0,.04-.069Z" transform="translate(-281.578 -172.264)" fill="#282523"/>
      <path id="Path_2131" data-name="Path 2131" d="M184.215,114.2l10.426-6.056,42.322,24.435-10.426,6.056Z" transform="translate(-184.206 -108.145)" fill="#8c98b2"/>
      <path id="Path_2132" data-name="Path 2132" d="M336.382,190.155a.847.847,0,0,0-.136-.213.623.623,0,0,0-.153-.129l-10.426,6.056a.624.624,0,0,1,.154.129.847.847,0,0,1,.136.213.658.658,0,0,1,.061.263l10.426-6.056A.658.658,0,0,0,336.382,190.155Z" transform="translate(-283.336 -165.378)" fill="#4a5062"/>
      <path id="Path_2133" data-name="Path 2133" d="M226.664,163.487l-.772-.446a.256.256,0,0,1-.128-.222l0-7.8a.018.018,0,0,1,.028-.016l.909.524a.32.32,0,0,0,.164.042l0-2.142a.77.77,0,0,0-.35-.606l-42.322-24.435-.009,12.127a.8.8,0,0,0,.273.6l2.587,2.265,4.857,2.8,0-.834c0-1.555,1.1-2.18,2.456-1.4a5.374,5.374,0,0,1,2.44,4.226v.833l17.7,10.217,0-.834c0-1.555,1.1-2.18,2.456-1.4a5.374,5.374,0,0,1,2.44,4.226v.833l7.494,4.327,0-2.837A.414.414,0,0,1,226.664,163.487Zm-37.577-28.8-3.958,2.285c0-.014,0-5.257,0-5.257a.123.123,0,0,1,.184-.107l3.61,2.084a.334.334,0,0,1,.167.289Zm.4-.232v-.22a.123.123,0,0,1,.184-.107l.19.11Z" transform="translate(-184.184 -122.33)" fill="#717b91"/>
    </g>
    <g id="Axonometric_Cube" data-name="Axonometric Cube" transform="translate(187.076 108.896)">
      <path id="Cube_face_-_left" data-name="Cube face - left" d="M210.3,130.053l-16.45-9.5v.7l16.45,9.5Z" transform="translate(-193.85 -117.594)" fill="#787e8f"/>
      <path id="Cube_face_-_right" data-name="Cube face - right" d="M253.961,143.1l-5.13,2.962v-.7l5.13-2.962Z" transform="translate(-232.38 -132.902)" fill="#787e8f"/>
      <path id="Cube_face_-_top" data-name="Cube face - top" d="M210.3,123.115l-16.45-9.5,5.13-2.962,16.45,9.5Z" transform="translate(-193.85 -110.656)" fill="#8c98b2"/>
    </g>
    <path id="Path_2134" data-name="Path 2134" d="M185.522,134.776v6.985l40.173,23.194V157.97Zm4.5,4.385-3.958,2.285c0-.014,0-5.257,0-5.257a.123.123,0,0,1,.184-.107l3.61,2.084a.334.334,0,0,1,.167.289Zm.4-.232v-.22a.123.123,0,0,1,.184-.107l.19.11Z" transform="translate(-0.938 -18.663)" fill="#282523"/>
    <path id="Path_2135" data-name="Path 2135" d="M309.007,217.728l-5.459-3.152V202.913l5.459,3.152Z" transform="translate(-83.651 -66.414)" fill="#282523"/>
    <path id="Path_2136" data-name="Path 2136" d="M248.867,183.006l-5.459-3.152V168.191l5.459,3.152Z" transform="translate(-41.504 -42.081)" fill="#282523"/>
    <path id="Path_2137" data-name="Path 2137" d="M324.1,205.45l-.909-.524a.018.018,0,0,0-.028.016l0,7.8a.256.256,0,0,0,.128.222l.772.445a.417.417,0,0,0,.417,0l10.011-5.78a.08.08,0,0,0,.04-.069l-.016-7.938-10.09,5.825A.322.322,0,0,1,324.1,205.45Z" transform="translate(-97.394 -64.11)" opacity="0.8" fill="url(#linear-gradient)"/>
    <path id="Path_2138" data-name="Path 2138" d="M206.665,158.64l-2.186-1.262v-8.442l2.186,1.262Zm2.508-6.994-2.186-1.262v8.442l2.186,1.262Zm15.458,17.367-2.186-1.262v-8.442l2.186,1.262Zm2.508-6.994-2.186-1.262V169.2l2.186,1.262ZM215.347,160.8l-5.5-3.175a.287.287,0,0,1-.144-.249v-5.243a.123.123,0,0,1,.184-.106l5.574,3.218a.335.335,0,0,1,.167.289v5.1A.188.188,0,0,1,215.347,160.8Zm6.609,3.49v-5.1a.334.334,0,0,0-.167-.289l-5.574-3.218a.123.123,0,0,0-.184.107v5.243a.288.288,0,0,0,.144.249l5.5,3.175A.188.188,0,0,0,221.956,164.287ZM197.62,150.236v-5.1a.333.333,0,0,0-.167-.289l-5.574-3.218a.123.123,0,0,0-.184.107v5.243a.288.288,0,0,0,.144.249l5.5,3.175A.188.188,0,0,0,197.62,150.236Zm6.327,3.653v-5.1a.334.334,0,0,0-.167-.289l-5.574-3.218a.123.123,0,0,0-.184.107v5.242a.288.288,0,0,0,.144.25l5.5,3.175A.188.188,0,0,0,203.947,153.89Zm-12.654-7.306v-5.1a.334.334,0,0,0-.167-.289l-3.61-2.084a.123.123,0,0,0-.184.107v5.243a.288.288,0,0,0,.144.249l3.536,2.041A.188.188,0,0,0,191.293,146.584Z" transform="translate(-2.205 -21.686)" fill="#35312d" opacity="0.8"/>
    <g id="Group_6219" data-name="Group 6219" transform="translate(224.76 140.535)">
      <g id="Group_6216" data-name="Group 6216" transform="translate(1.413 3.668)" style="mix-blend-mode: normal;isolation: isolate">
        <path id="Path_2139" data-name="Path 2139" d="M325.339,228.674a.126.126,0,0,0-.126.013l-.513.3a.382.382,0,0,0-.175.3l0,1.888a.122.122,0,0,0,.051.112l.153.089.761-2.61Z" transform="translate(-324.525 -228.662)" fill="#596072"/>
        <path id="Path_2140" data-name="Path 2140" d="M325.9,229.082c0-.111-.08-.154-.176-.1l-.513.3a.383.383,0,0,0-.175.3l0,1.888c0,.111.08.156.176.1l.513-.3a.387.387,0,0,0,.175-.3Z" transform="translate(-324.883 -228.871)" fill="#8c98b2"/>
      </g>
      <g id="Group_6217" data-name="Group 6217" transform="translate(0)">
        <path id="Path_2141" data-name="Path 2141" d="M321.824,220.268a.057.057,0,0,1-.057-.057v-1.177l-1.583-.914a.575.575,0,0,1,0-1.084l1.083-.626a.058.058,0,0,1,.058.1l-1.083.625a.463.463,0,0,0,0,.884l1.612.931a.057.057,0,0,1,.029.05v1.211A.057.057,0,0,1,321.824,220.268Z" transform="translate(-319.801 -216.403)" fill="#47433f"/>
      </g>
      <g id="Group_6218" data-name="Group 6218" transform="translate(1.759 2.54)">
        <path id="Path_2142" data-name="Path 2142" d="M325.738,226.332a.057.057,0,0,1-.057-.057v-.96a.059.059,0,0,1,.007-.028l.206-.365a.058.058,0,1,1,.1.057l-.2.351v.945A.057.057,0,0,1,325.738,226.332Z" transform="translate(-325.681 -224.892)" fill="#47433f"/>
      </g>
    </g>
    <g id="Group_6220" data-name="Group 6220" transform="translate(216.463 126.625)">
      <path id="Path_2143" data-name="Path 2143" d="M302.657,172.966l-5.293,3.056-5.293-3.056,5.293-3.056Z" transform="translate(-292.071 -169.91)" fill="#52586c" opacity="0.3"/>
      <path id="Path_2144" data-name="Path 2144" d="M297.364,170.29l4.964,2.866.329-.19-5.293-3.056-5.293,3.056.329.19Z" transform="translate(-292.071 -169.91)" fill="#545b69"/>
    </g>
    <g id="Group_6221" data-name="Group 6221" transform="translate(226.633 148.554)">
      <path id="Path_2145" data-name="Path 2145" d="M330.646,243.833l-1.928,1.113v-.628l1.928-1.113Z" transform="translate(-327.924 -243.205)" fill="#fdffef"/>
      <path id="Path_2146" data-name="Path 2146" d="M327.5,247.427l-.614.354v-.628l.614-.354Z" transform="translate(-326.639 -245.724)" fill="#e9751c"/>
      <path id="Path_2147" data-name="Path 2147" d="M326.063,248.133l.248.143v-.628l-.248-.143Z" transform="translate(-326.063 -246.219)" fill="#cb5e12"/>
    </g>
    <g id="Group_6222" data-name="Group 6222" transform="translate(234.83 143.964)">
      <path id="Path_2148" data-name="Path 2148" d="M353.46,230.661l1.928-1.113v-.628l-1.928,1.113Z" transform="translate(-353.46 -228.604)" fill="#fdffef"/>
      <path id="Path_2149" data-name="Path 2149" d="M359.684,228.844l.614-.354v-.628l-.614.354Z" transform="translate(-357.822 -227.862)" fill="#e9751c"/>
    </g>
    <path id="Path_2150" data-name="Path 2150" d="M341.231,233.642l-4.571,2.639v-.122l4.571-2.639Zm0,.118L336.66,236.4v.122l4.571-2.639Zm0,.24-4.571,2.639v.122l4.571-2.639Zm0,.24-4.571,2.639V237l4.571-2.639Zm0,.24-4.571,2.639v.122l4.571-2.639Zm0,.24-4.571,2.639v.122l4.571-2.639Z" transform="translate(-106.856 -87.863)" fill="#363c4b" opacity="0.9"/>
    <g id="Group_6223" data-name="Group 6223" transform="translate(227.713 134.074)">
      <path id="Path_2151" data-name="Path 2151" d="M338.487,196.583l-8.815,5.093V199.9l8.815-5.089Z" transform="translate(-329.672 -194.806)" fill="#282523"/>
      <path id="Path_2152" data-name="Path 2152" d="M332.2,202.254l-1.15.664v-.507l1.15-.664Zm2.3-1.834-1.782,1.029v.507l1.782-1.029Zm1.719-.992-1.2.694v.507l1.2-.694Zm2.816-1.626-.864.5v.507l.864-.5Z" transform="translate(-330.636 -196.905)" fill="#e9751c"/>
    </g>
    <path id="Path_2153" data-name="Path 2153" d="M216.156,183.666l-.4-.229a.219.219,0,0,1-.105-.166v-.046c0-.058.047-.078.105-.044l.4.229a.219.219,0,0,1,.105.166v.046C216.261,183.68,216.214,183.7,216.156,183.666Zm-28.47-16.542v-.045a.219.219,0,0,0-.105-.166l-.4-.23c-.058-.034-.105-.013-.105.045v.045a.218.218,0,0,0,.105.166l.4.23C187.638,167.2,187.686,167.182,187.686,167.123Z" transform="translate(-2.027 -41.012)" fill="#cb5e12"/>
    <path id="Path_2154" data-name="Path 2154" d="M223.249,159.737a.123.123,0,0,0-.184.107v1.015l5.925,3.424v-1.037a.335.335,0,0,0-.167-.29Z" transform="translate(-27.248 -36.144)" fill="#282523"/>
    <path id="Path_2155" data-name="Path 2155" d="M224.416,162.024l-.807-.466V161.2l.807.466Zm1.614.576-1.251-.722v.356l1.251.722Zm1.207.7-.844-.487v.356l.844.487Zm1.977,1.142-.606-.35v.356l.606.35Z" transform="translate(-27.629 -37.183)" fill="#e9751c"/>
    <path id="Path_2156" data-name="Path 2156" d="M207.135,115.9l-3.908,2.257-5.094-2.941,3.908-2.257Z" transform="translate(-9.775 -3.371)" fill="#35312d"/>
  </g>
</svg>
