<svg xmlns="http://www.w3.org/2000/svg" width="11.852" height="23.704" viewBox="0 0 11.852 23.704">
  <path id="Icon_awesome-thermometer-empty" data-name="Icon awesome-thermometer-empty" d="M8.889,17.778a2.963,2.963,0,1,1-2.963-2.963A2.963,2.963,0,0,1,8.889,17.778Zm1.481-3.919A5.926,5.926,0,0,1,5.926,23.7H5.884a5.926,5.926,0,0,1-4.4-9.845V4.444a4.444,4.444,0,1,1,8.889,0ZM9.63,17.778A4.3,4.3,0,0,0,8.148,14.7V4.444a2.222,2.222,0,0,0-4.444,0V14.7a4.309,4.309,0,0,0-1.481,3.059A3.719,3.719,0,0,0,5.9,21.481h.027A3.708,3.708,0,0,0,9.63,17.778Z" fill="orange"/>
</svg>
